<svg xmlns="http://www.w3.org/2000/svg" xmlns:xlink="http://www.w3.org/1999/xlink" id="Layer_1" x="0px" y="0px" viewBox="0 0 64 65" style="enable-background:new 0 0 64 65;" xml:space="preserve"> <style type="text/css"> .st0{fill:url(#SVGID_1_);} .st1{fill:url(#SVGID_00000147926511734049447450000003945331123787856046_);} .st2{fill:url(#SVGID_00000141451064886469607010000005503915565471615650_);} .st3{fill:url(#SVGID_00000023242615160438044050000008701480564561758343_);} .st4{fill:url(#SVGID_00000132079934116995063490000015133503356625590975_);} .st5{fill:url(#SVGID_00000139986004380795652110000004813174660248765872_);} </style> <g> <linearGradient id="SVGID_1_" gradientUnits="userSpaceOnUse" x1="14.8352" y1="55.6989" x2="49.5008" y2="55.6989"> <stop offset="0" style="stop-color:#222"></stop> <stop offset="1" style="stop-color:#222"></stop> </linearGradient> <path class="st0" d="M48.6,64.4H15.8c-0.5,0-0.9-0.4-0.9-0.9V56c0-4.9,4-9,9-9h16.7c4.9,0,9,4,9,9v7.5C49.5,64,49.1,64.4,48.6,64.4 z M16.7,62.5h31V56c0-3.9-3.2-7.1-7.1-7.1H23.8c-3.9,0-7.1,3.2-7.1,7.1L16.7,62.5z"></path> <linearGradient id="SVGID_00000060750061305348024390000015958406632062595760_" gradientUnits="userSpaceOnUse" x1="22.8258" y1="34.6144" x2="41.5103" y2="34.6144"> <stop offset="0" style="stop-color:#222"></stop> <stop offset="1" style="stop-color:#222"></stop> </linearGradient> <path style="fill:url(#SVGID_00000060750061305348024390000015958406632062595760_);" d="M32.2,44c-5.2,0-9.3-4.2-9.3-9.3 s4.2-9.3,9.3-9.3s9.3,4.2,9.3,9.3C41.5,39.8,37.3,44,32.2,44z M32.2,27.1c-4.1,0-7.5,3.4-7.5,7.5s3.4,7.5,7.5,7.5s7.5-3.4,7.5-7.5 C39.7,30.5,36.3,27.1,32.2,27.1z"></path> <linearGradient id="SVGID_00000036210297632865918510000012144644603272061366_" gradientUnits="userSpaceOnUse" x1="22.4488" y1="60.9125" x2="41.8873" y2="60.9125"> <stop offset="0" style="stop-color:#222"></stop> <stop offset="1" style="stop-color:#222"></stop> </linearGradient> <path style="fill:url(#SVGID_00000036210297632865918510000012144644603272061366_);" d="M41,64.4H23.4c-0.5,0-0.9-0.4-0.9-0.9 v-5.1c0-0.5,0.4-0.9,0.9-0.9s0.9,0.4,0.9,0.9v4.2H40v-4.2c0-0.5,0.4-0.9,0.9-0.9s0.9,0.4,0.9,0.9v5.1C41.9,64,41.5,64.4,41,64.4z"></path> <linearGradient id="SVGID_00000127006200139383699630000018177980170277194914_" gradientUnits="userSpaceOnUse" x1="22.6993" y1="9.0709" x2="41.646" y2="9.0709"> <stop offset="0" style="stop-color:#222"></stop> <stop offset="1" style="stop-color:#222"></stop> </linearGradient> <path style="fill:url(#SVGID_00000127006200139383699630000018177980170277194914_);" d="M37.5,18.1c-0.1,0-0.3,0-0.4-0.1l-4.9-2.6 L27.3,18c-0.3,0.2-0.7,0.1-1-0.1C26,17.8,25.9,17.4,26,17l0.9-5.4L23,7.8c-0.4-0.4-0.4-0.9,0-1.3c0.1-0.1,0.3-0.2,0.5-0.3l5.4-0.8 l2.4-4.9c0.2-0.5,0.8-0.6,1.2-0.4c0.2,0.1,0.3,0.2,0.4,0.4l2.4,4.9l5.4,0.8c0.5,0.1,0.8,0.5,0.8,1c0,0.2-0.1,0.4-0.3,0.5l-3.9,3.8 l0.9,5.4c0.1,0.4-0.1,0.7-0.4,0.9C37.8,18.1,37.7,18.1,37.5,18.1z M32.2,13.5c0.1,0,0.3,0,0.4,0.1l3.7,1.9l-0.7-4.1 c-0.1-0.3,0-0.6,0.3-0.8l3-2.9l-4.1-0.6c-0.3,0-0.6-0.2-0.7-0.5L32.2,3l-1.8,3.7c-0.1,0.3-0.4,0.5-0.7,0.5l-4.1,0.6l2.9,2.9 c0.2,0.2,0.3,0.5,0.3,0.8l-0.7,4.1l3.7-1.9C31.9,13.5,32,13.5,32.2,13.5L32.2,13.5z"></path> <linearGradient id="SVGID_00000085952724771118888450000012832163296226588083_" gradientUnits="userSpaceOnUse" x1="43.8411" y1="21.3004" x2="62.7977" y2="21.3004"> <stop offset="0" style="stop-color:#222"></stop> <stop offset="1" style="stop-color:#222"></stop> </linearGradient> <path style="fill:url(#SVGID_00000085952724771118888450000012832163296226588083_);" d="M58.6,30.3c-0.1,0-0.3,0-0.4-0.1l-4.9-2.5 l-4.9,2.6c-0.3,0.2-0.7,0.1-1-0.1c-0.3-0.2-0.4-0.6-0.4-0.9l0.9-5.4L44.1,20c-0.4-0.4-0.4-0.9,0-1.3c0.1-0.1,0.3-0.2,0.5-0.3 l5.4-0.8l2.4-4.9c0.2-0.5,0.8-0.6,1.2-0.4c0.2,0.1,0.3,0.2,0.4,0.4l2.4,4.9l5.4,0.8c0.5,0.1,0.8,0.6,0.8,1.1c0,0.2-0.1,0.4-0.3,0.5 l-3.9,3.9l0.9,5.4c0.1,0.4-0.1,0.7-0.4,0.9C59,30.3,58.8,30.4,58.6,30.3z M53.3,25.8c0.1,0,0.3,0,0.4,0.1l3.7,1.9l-0.7-4.1 c-0.1-0.3,0-0.6,0.3-0.8l3-2.9l-4.1-0.6c-0.3,0-0.6-0.2-0.7-0.5l-1.8-3.7l-1.8,3.7c-0.1,0.3-0.4,0.5-0.7,0.5L46.7,20l2.9,2.9 c0.2,0.2,0.3,0.5,0.3,0.8l-0.7,4.1l3.7-1.9C53,25.8,53.2,25.7,53.3,25.8z"></path> <linearGradient id="SVGID_00000094604911931983230860000018278602771438642567_" gradientUnits="userSpaceOnUse" x1="1.5424" y1="21.3163" x2="20.4988" y2="21.3163"> <stop offset="0" style="stop-color:#222"></stop> <stop offset="1" style="stop-color:#222"></stop> </linearGradient> <path style="fill:url(#SVGID_00000094604911931983230860000018278602771438642567_);" d="M16.3,30.3c-0.1,0-0.3,0-0.4-0.1L11,27.7 l-4.9,2.6c-0.3,0.2-0.7,0.1-1-0.1c-0.3-0.2-0.4-0.6-0.4-0.9l0.9-5.4L1.8,20c-0.4-0.4-0.4-0.9,0-1.3c0.1-0.1,0.3-0.2,0.5-0.3 l5.4-0.8l2.4-4.9c0.2-0.5,0.8-0.6,1.2-0.4c0.2,0.1,0.3,0.2,0.4,0.4l2.4,4.9l5.4,0.8c0.5,0.1,0.8,0.6,0.8,1.1c0,0.2-0.1,0.4-0.3,0.5 l-3.9,3.9l0.9,5.4c0.1,0.5-0.2,1-0.7,1.1C16.4,30.4,16.3,30.4,16.3,30.3L16.3,30.3z M11,25.8c0.2,0,0.3,0,0.4,0.1l3.7,1.9l-0.7-4.1 c-0.1-0.3,0-0.6,0.3-0.8l3-2.9l-4.1-0.6c-0.3,0-0.6-0.2-0.7-0.5L11,15.2l-1.8,3.7c-0.1,0.3-0.4,0.5-0.7,0.5L4.4,20l2.9,2.9 c0.2,0.2,0.3,0.5,0.3,0.8l-0.7,4.1l3.7-1.9C10.7,25.8,10.9,25.7,11,25.8z"></path> </g> </svg>